<?xml version="1.0" encoding="utf-8"?>
<!-- Generator: Adobe Illustrator 28.3.0, SVG Export Plug-In . SVG Version: 6.00 Build 0)  -->
<svg version="1.1" id="Layer_1" xmlns="http://www.w3.org/2000/svg" xmlns:xlink="http://www.w3.org/1999/xlink" x="0px" y="0px"
	 viewBox="0 0 654.5 148.2" style="enable-background:new 0 0 654.5 148.2;" xml:space="preserve">
<style type="text/css">
	.st0{fill:#FFFFFF;}
</style>
<g>
	<path class="st0" d="M-0.2,146.2v-110h18v21H18c0.9-7.3,3.9-13,9-17c5.1-4,11.8-6,20.2-6c11.5,0,20.6,3.6,27.4,10.9
		c6.8,7.3,10.2,17.1,10.2,29.5v7.6h-18v-6c0-8.4-2.1-14.9-6.4-19.5c-4.3-4.6-10.5-6.9-18.6-6.9c-16,0-24,8.8-24,26.4v70H-0.2z"/>
	<path class="st0" d="M157.7,148.2c-12.7,0-22.8-3.8-30.4-11.3c-7.6-7.5-11.4-17.8-11.4-30.7v-70h18v70c0,8.3,2.1,14.7,6.4,19.3
		c4.3,4.6,10.1,6.9,17.4,6.9c7.5,0,13.4-2.3,17.7-6.9c4.3-4.6,6.5-11,6.5-19.3v-70h18v70c0,12.9-3.9,23.2-11.6,30.7
		C180.6,144.4,170.4,148.2,157.7,148.2z"/>
	<path class="st0" d="M293.9,146.2c-9.7,0-17.5-2.8-23.3-8.5c-5.8-5.7-8.7-13.2-8.7-22.5V16.6h-38V0.2h56v115
		c0,4.5,1.3,8.1,3.8,10.7c2.5,2.6,5.9,3.9,10.2,3.9h34v16.4H293.9z"/>
	<path class="st0" d="M397.9,148.2c-8.7,0-16.2-1.7-22.7-5.2c-6.5-3.5-11.5-8.4-15-14.7c-3.5-6.3-5.3-13.7-5.3-22.1v-30
		c0-8.5,1.8-15.9,5.3-22.2c3.5-6.3,8.5-11.1,15-14.6c6.5-3.5,14-5.2,22.7-5.2c8.7,0,16.2,1.7,22.7,5.2c6.5,3.5,11.5,8.3,15,14.6
		c3.5,6.3,5.3,13.7,5.3,22.2v19.4h-68.4v10.6c0,8.7,2.2,15.3,6.6,19.9c4.4,4.6,10.7,6.9,18.8,6.9c6.9,0,12.5-1.2,16.8-3.7
		c4.3-2.5,6.9-6.2,7.8-11.1h18c-1.2,9.2-5.7,16.5-13.5,21.9C419.2,145.5,409.5,148.2,397.9,148.2z M372.5,82h50.8v-5.8
		c0-8.7-2.2-15.3-6.5-20c-4.3-4.7-10.6-7-18.9-7c-8.1,0-14.4,2.3-18.8,7c-4.4,4.7-6.6,11.3-6.6,20V82z"/>
	<path class="st0" d="M479.7,146.2v-110h18v21h0.2c0.9-7.3,3.9-13,9-17c5.1-4,11.8-6,20.2-6c11.5,0,20.6,3.6,27.4,10.9
		c6.8,7.3,10.2,17.1,10.2,29.5v7.6h-18v-6c0-8.4-2.1-14.9-6.4-19.5c-4.3-4.6-10.5-6.9-18.6-6.9c-16,0-24,8.8-24,26.4v70H479.7z"/>
	<path class="st0" d="M637.9,148.2c-5.1,0-9.1-1.5-12.1-4.4s-4.5-6.9-4.5-11.8c0-5.2,1.5-9.3,4.5-12.4c3-3.1,7-4.6,12.1-4.6
		c5.1,0,9.1,1.5,12.1,4.6c3,3.1,4.5,7.2,4.5,12.4c0,4.9-1.5,8.9-4.5,11.8S643,148.2,637.9,148.2z"/>
</g>
</svg>
